PathFileType	4	(x/y/z)	S01_P20_T22
DataRate	CameraRate	NumFrames	NumMarkers	Units	OrigDataRate	OrigDataStartFrame	OrigNumFrames
240	240	7	51	mm	240	102	404
Frame#	Time	Sternum			R.Acromium			L.Acromium			Top.Head			R.ASIS			L.ASIS			R.PSIS			L.PSIS			R.Great.Tro			L.Great.Tro			R.Iliac.Crest			L.Iliac.Crest			V.Sacral			R.Thigh.Upper.Post			R.Thigh.Lower.Ant			R.Thigh.Lower.Post			R.Thigh.Upper.Ant			R.Knee.Lat			R.Knee.Med			R.Shank.Upper.Post			R.Shank.Lower.Ant			R.Shank.Lower.Post			R.Shank.Upper.Ant			R.Ankle.Lat			R.Ankle.Med			R.Heel.Upper			R.Heel.Med			R.Heel.Lat			R.Toe.Lat			R.Toe.Med			R.Toe.Tip			L.Thigh.Upper.Post			L.Thigh.Lower.Ant			L.Thigh.Lower.Post			L.Thigh.Upper.Ant			L.Knee.Lat			L.Knee.Med			L.Shank.Upper.Post			L.Shank.Lower.Ant			L.Shank.Lower.Post			L.Shank.Upper.Ant			L.Ankle.Lat			L.Ankle.Med			L.Heel.Upper			L.Heel.Med			L.Heel.Lat			L.Toe.Lat			L.Toe.Med			L.Toe.Tip			Cervical.Spine			Back			
		X1	Y1	Z1	X2	Y2	Z2	X3	Y3	Z3	X4	Y4	Z4	X5	Y5	Z5	X6	Y6	Z6	X7	Y7	Z7	X8	Y8	Z8	X9	Y9	Z9	X10	Y10	Z10	X11	Y11	Z11	X12	Y12	Z12	X13	Y13	Z13	X14	Y14	Z14	X15	Y15	Z15	X16	Y16	Z16	X17	Y17	Z17	X18	Y18	Z18	X19	Y19	Z19	X20	Y20	Z20	X21	Y21	Z21	X22	Y22	Z22	X23	Y23	Z23	X24	Y24	Z24	X25	Y25	Z25	X26	Y26	Z26	X27	Y27	Z27	X28	Y28	Z28	X29	Y29	Z29	X30	Y30	Z30	X31	Y31	Z31	X32	Y32	Z32	X33	Y33	Z33	X34	Y34	Z34	X35	Y35	Z35	X36	Y36	Z36	X37	Y37	Z37	X38	Y38	Z38	X39	Y39	Z39	X40	Y40	Z40	X41	Y41	Z41	X42	Y42	Z42	X43	Y43	Z43	X44	Y44	Z44	X45	Y45	Z45	X46	Y46	Z46	X47	Y47	Z47	X48	Y48	Z48	X49	Y49	Z49	X50	Y50	Z50	X51	Y51	Z51	

102	0.42083	-880.76	1261.9	251.32	-991.27	1523.6	417.56	-1014.9	1526	86.799	-974.59	1842.1	232.97	-932.34	1021.5	417.44	-924.59	1002	153.05	-1166.3	1064.9	323.7	-1170.6	1063.4	220.44	-1006.5	980.69	505.33	-1036.8	956.56	78.272	-1019.4	1127.6	476.57	-1030.8	1084.8	73.66	-1182.8	1028.5	271.24	-896.45	684.86	487.88	-801.92	649.96	463.39	-856.58	607.2	463.95	-839.98	730.34	484.58	-808.65	561.37	458.39	-799.72	567.09	312.62	-833.7	397.49	473.38	-760.38	326.79	430.3	-827.38	328.18	459.93	-771.22	396.95	450.11	-792.94	126.26	417.29	-758.43	143.93	327.57	-851.41	83.504	353.08	-827.12	60.777	323.27	-836.78	52.737	386.86	-654.27	75.371	456.14	-616.33	100.16	338.87	-563.86	128.59	399.33	-1105.9	684.11	102.31	-1028.7	603.41	98.019	-1105.5	593.73	117.89	-1040	698.05	81.002	-1070.4	500.95	108.11	-1039.8	499.63	247.36	-1162.6	384.33	90.713	-1132.5	280.14	115.6	-1186.7	309.77	93.949	-1107.1	352.59	106	-1274.9	112.79	132.36	-1245.6	118.54	230.08	-1347.7	81.161	178.01	-1338.8	54.293	209.62	-1340.3	56.865	147.53	-1132.3	38.895	107.48	-1105.5	44.201	229.48	-1043.3	53.128	177.62	-1084.7	1583.4	254.17	-1182.7	1279.4	283.75
103	0.425	-874.58	1260	251.63	-984.83	1522	417.89	-1008.8	1524.4	87.175	-968.18	1840.5	233.38	-926.22	1019.8	417.74	-918.7	1000.3	153.18	-1160.3	1063.4	324.05	-1164.4	1062	220.84	-1000.5	978.94	505.58	-1031.1	955.25	78.482	-1013.3	1125.7	476.97	-1025	1083.2	73.914	-1176.7	1027.1	271.58	-890.35	683.19	487.72	-795.84	648.56	462.81	-850.39	605.67	463.45	-833.96	728.79	484.28	-801.94	560.42	457.74	-793.86	565.86	311.77	-824.65	396.24	473.29	-750.4	326.43	430.23	-817.37	326.93	459.98	-762.21	396.53	449.84	-779.92	125.13	417.8	-745.72	143.07	327.95	-838	81.395	353.81	-813.43	58.948	323.98	-822.85	50.92	387.62	-640.36	76.213	456.42	-603.05	101.35	339.06	-550.81	130.65	399.34	-1101.4	683.29	102.41	-1024.5	602.2	98.046	-1101.3	592.86	117.94	-1035.6	696.98	81.095	-1066.9	499.91	108.04	-1036.1	498.31	247.25	-1160.1	384	90.802	-1130.7	279.59	115.62	-1184.7	309.65	94.06	-1104.7	351.86	105.92	-1274.5	113.29	132.63	-1245	118.9	230.35	-1347.4	81.934	178.41	-1338.5	54.979	209.97	-1340.1	57.642	147.88	-1132.3	38.837	107.54	-1105.3	44.076	229.51	-1043.1	52.728	177.64	-1078.5	1581.9	254.57	-1176.6	1277.9	284.26
104	0.42917	-868.38	1258	251.96	-978.38	1520.3	418.25	-1002.6	1522.7	87.585	-961.76	1839	233.83	-920.05	1018	418.05	-912.78	998.6	153.31	-1154.2	1061.9	324.41	-1158.2	1060.5	221.24	-994.33	977.17	505.82	-1025.3	953.92	78.693	-1007.2	1123.8	477.39	-1019.2	1081.6	74.168	-1170.6	1025.6	271.93	-884.13	681.57	487.58	-789.65	647.2	462.23	-844.08	604.18	462.99	-827.84	727.28	483.98	-795.16	559.48	457.13	-787.92	564.64	310.99	-815.77	395.01	473.19	-740.69	326.03	430.13	-807.62	325.73	460.01	-753.38	396.07	449.57	-767.46	124.08	418.23	-733.56	142.24	328.26	-825.2	79.463	354.43	-800.37	57.263	324.58	-809.57	49.261	388.28	-627.14	76.94	456.62	-590.4	102.36	339.16	-538.37	132.47	399.28	-1096.8	682.44	102.52	-1020.2	600.97	98.064	-1097.1	591.95	117.99	-1031.2	695.9	81.19	-1063.3	498.85	107.96	-1032.3	496.98	247.13	-1157.4	383.7	90.892	-1128.9	279.05	115.64	-1182.6	309.56	94.177	-1102.2	351.15	105.82	-1274	113.86	132.91	-1244.4	119.32	230.61	-1347.1	82.804	178.83	-1338.3	55.761	210.33	-1340	58.502	148.25	-1132.2	38.78	107.6	-1105.1	43.962	229.54	-1042.9	52.341	177.66	-1072.3	1580.5	255	-1170.6	1276.4	284.79
105	0.43333	-862.16	1256.1	252.3	-971.93	1518.6	418.65	-996.49	1521.1	88.03	-955.32	1837.4	234.32	-913.84	1016.2	418.36	-906.81	996.92	153.45	-1148.1	1060.4	324.78	-1151.9	1059	221.66	-988.15	975.38	506.07	-1019.5	952.58	78.903	-1001	1121.9	477.82	-1013.4	1080	74.422	-1164.5	1024.1	272.29	-877.8	679.99	487.46	-783.34	645.89	461.65	-837.65	602.73	462.57	-821.6	725.83	483.68	-788.31	558.52	456.56	-781.88	563.45	310.27	-807.07	393.82	473.08	-731.26	325.57	430	-798.14	324.55	459.99	-744.73	395.54	449.29	-755.59	123.08	418.56	-721.99	141.43	328.49	-813.03	77.691	354.96	-787.98	55.705	325.08	-796.99	47.743	388.84	-614.62	77.526	456.73	-578.41	103.19	339.18	-526.55	134	399.16	-1092.2	681.57	102.64	-1015.9	599.74	98.07	-1092.7	591.03	118.04	-1026.7	694.81	81.286	-1059.6	497.8	107.87	-1028.3	495.63	247.01	-1154.7	383.41	90.978	-1127	278.53	115.64	-1180.4	309.51	94.298	-1099.7	350.45	105.7	-1273.6	114.49	133.19	-1243.8	119.79	230.86	-1346.8	83.784	179.25	-1338	56.651	210.71	-1339.8	59.455	148.64	-1132.1	38.723	107.66	-1105	43.861	229.57	-1042.7	51.968	177.68	-1066.1	1579	255.48	-1164.5	1274.9	285.34
106	0.4375	-855.93	1254.2	252.66	-965.48	1516.9	419.09	-990.32	1519.4	88.512	-948.86	1835.8	234.86	-907.58	1014.4	418.67	-900.81	995.25	153.59	-1141.9	1058.8	325.16	-1145.5	1057.5	222.09	-981.92	973.58	506.31	-1013.6	951.22	79.114	-994.81	1120	478.27	-1007.7	1078.4	74.674	-1158.3	1022.6	272.66	-871.34	678.46	487.36	-776.91	644.64	461.07	-831.08	601.32	462.18	-815.23	724.42	483.37	-781.39	557.56	456.03	-775.73	562.28	309.62	-798.54	392.64	472.96	-722.12	325.04	429.84	-788.95	323.4	459.93	-736.27	394.94	449	-744.34	122.11	418.81	-711.01	140.6	328.62	-801.52	76.065	355.36	-776.29	54.254	325.47	-785.12	46.347	389.28	-602.82	77.945	456.76	-567.09	103.79	339.11	-515.36	135.23	398.95	-1087.5	680.67	102.78	-1011.4	598.5	98.06	-1088.3	590.08	118.11	-1022.1	693.71	81.384	-1055.8	496.73	107.76	-1024.3	494.27	246.88	-1151.9	383.15	91.058	-1125	278.04	115.63	-1178.2	309.49	94.419	-1097	349.78	105.56	-1273.1	115.2	133.46	-1243.1	120.34	231.09	-1346.5	84.885	179.68	-1337.7	57.66	211.1	-1339.6	60.512	149.04	-1132.1	38.666	107.73	-1104.8	43.771	229.6	-1042.6	51.61	177.7	-1059.9	1577.4	256	-1158.4	1273.4	285.91
107	0.44167	-849.68	1252.3	253.03	-959.03	1515.2	419.56	-984.15	1517.7	89.032	-942.4	1834.2	235.45	-901.27	1012.7	418.99	-894.77	993.59	153.73	-1135.7	1057.2	325.55	-1139.1	1055.9	222.52	-975.63	971.78	506.54	-1007.6	949.86	79.323	-988.59	1118	478.72	-1001.9	1076.8	74.925	-1152	1021	273.04	-864.75	676.99	487.27	-770.36	643.44	460.48	-824.38	599.97	461.82	-808.75	723.07	483.05	-774.4	556.58	455.54	-769.47	561.13	309.05	-790.21	391.46	472.82	-713.29	324.42	429.64	-780.04	322.25	459.84	-727.99	394.25	448.7	-733.72	121.17	418.95	-700.65	139.75	328.66	-790.69	74.569	355.66	-765.33	52.894	325.75	-773.98	45.06	389.61	-591.75	78.174	456.68	-556.44	104.14	338.95	-504.82	136.12	398.66	-1082.6	679.75	102.93	-1006.9	597.25	98.032	-1083.8	589.12	118.17	-1017.4	692.61	81.481	-1051.9	495.66	107.64	-1020.1	492.9	246.73	-1148.9	382.93	91.129	-1123	277.58	115.6	-1175.9	309.52	94.537	-1094.3	349.12	105.4	-1272.5	116	133.73	-1242.3	120.96	231.3	-1346.2	86.122	180.11	-1337.4	58.803	211.5	-1339.4	61.685	149.45	-1132	38.609	107.81	-1104.6	43.693	229.64	-1042.4	51.267	177.73	-1053.8	1575.9	256.57	-1152.2	1271.8	286.5
108	0.44583	-843.42	1250.5	253.42	-952.59	1513.5	420.08	-977.96	1516.1	89.59	-935.94	1832.6	236.08	-894.9	1011	419.32	-888.69	991.95	153.87	-1129.5	1055.6	325.94	-1132.7	1054.3	222.97	-969.29	969.97	506.77	-1001.6	948.5	79.532	-982.33	1116.1	479.18	-996.05	1075.2	75.175	-1145.7	1019.4	273.43	-858.05	675.58	487.17	-763.68	642.29	459.88	-817.55	598.66	461.49	-802.15	721.78	482.71	-767.35	555.59	455.08	-763.09	560.01	308.55	-782.07	390.29	472.66	-704.76	323.7	429.4	-771.44	321.1	459.7	-719.92	393.48	448.39	-723.75	120.22	419	-690.92	138.85	328.61	-780.56	73.193	355.83	-755.1	51.609	325.91	-763.6	43.868	389.82	-581.42	78.194	456.51	-546.49	104.23	338.69	-494.93	136.66	398.29	-1077.7	678.82	103.09	-1002.2	596	97.981	-1079.1	588.14	118.25	-1012.7	691.5	81.576	-1047.9	494.59	107.5	-1015.8	491.52	246.56	-1145.9	382.74	91.184	-1120.9	277.15	115.55	-1173.6	309.59	94.647	-1091.4	348.5	105.2	-1271.9	116.88	133.98	-1241.5	121.66	231.48	-1345.8	87.507	180.54	-1337	60.092	211.9	-1339.2	62.986	149.86	-1132	38.551	107.88	-1104.4	43.626	229.67	-1042.2	50.94	177.75	-1047.6	1574.4	257.18	-1146	1270.2	287.11
